<?xml version="1.0" encoding="utf-8"?>
<!-- Generator: Adobe Illustrator 27.3.1, SVG Export Plug-In . SVG Version: 6.00 Build 0)  -->
<svg version="1.1" id="Layer_1" xmlns="http://www.w3.org/2000/svg" xmlns:xlink="http://www.w3.org/1999/xlink" x="0px" y="0px"
	 viewBox="0 0 204 204" style="enable-background:new 0 0 204 204;" xml:space="preserve">
<style type="text/css">
	.st0{display:none;}
	.st1{display:inline;stroke:#000000;stroke-miterlimit:10;}
	.st2{display:none;fill:url(#SVGID_1_);}
	.st3{display:none;fill:#D1D1D1;}
	.st4{fill:#2B3C66;}
	.st5{fill:#FFFFFF;}
	.st6{display:none;fill:none;stroke:#000000;stroke-width:0.25;stroke-miterlimit:10;}
	.st7{fill:#F6F6F6;stroke:#F6F6F6;stroke-width:0.75;stroke-miterlimit:10;}
	.st8{display:none;fill:#FFFFFF;stroke:#000000;stroke-width:0.25;stroke-miterlimit:10;}
</style>
<g id="Layer_2_00000078740930070567286310000000667416177781973649_" class="st0">
	<rect x="-13.2" y="-5.7" class="st1" width="226.8" height="219.3"/>
</g>
<g id="Layer_1_00000133501186941671238690000001850640722525042056_">
	
		<linearGradient id="SVGID_1_" gradientUnits="userSpaceOnUse" x1="-12.473" y1="975.5994" x2="228.0858" y2="976.4829" gradientTransform="matrix(1 0 0 1 0 -874)">
		<stop  offset="0" style="stop-color:#AA367C"/>
		<stop  offset="1" style="stop-color:#4A2FBD"/>
	</linearGradient>
	<path class="st2" d="M199.2,71c7.2,22.7,6.3,47.3-2.8,69.5c-9.7,23.8-28,43-51.3,53.9s-49.7,12.6-74.2,4.8s-45.1-24.5-57.7-46.9
		C0.6,130-3.2,103.7,2.7,78.7s20.9-46.8,42.2-61.2S92.1-2.7,117.4,1.2c21.9,3.3,42,13.7,57.4,29.4c6.5,6.7,0.6,19.8-13.4,16.5
		c-12.4-13.4-29-22.2-47.1-25C94.1,18.9,73.6,23.6,56.7,35S27.9,63.7,23.2,83.5s-1.7,40.7,8.4,58.4c10,17.7,26.4,31,45.8,37.2
		s40.4,4.8,58.9-3.8c18.4-8.6,33-23.9,40.7-42.7c6.4-15.6,7.7-32.7,3.9-48.9C178.8,74.8,186.5,65,199.2,71z"/>
	<rect x="-136.1" y="-33" class="st3" width="36.2" height="29.6"/>
	<path class="st4" d="M102,2.3C46.9,2.3,2.3,46.9,2.3,102s44.6,99.7,99.7,99.7s99.7-44.6,99.7-99.7S157.1,2.3,102,2.3z M101.9,182.8
		c-44.6,0-80.8-36.2-80.8-80.8s36.2-80.8,80.8-80.8s80.8,36.2,80.8,80.8S146.5,182.8,101.9,182.8z"/>
	<path class="st5" d="M193.2,61.7l-17.9,6.5c4.8,10.3,7.4,21.8,7.4,33.9c0,44.6-36.2,80.8-80.8,80.8c-44.6,0-80.8-36.2-80.8-80.8
		s36.2-80.8,80.8-80.8h0.1V2.3C46.9,2.3,2.3,46.9,2.3,102s44.6,99.7,99.7,99.7s99.7-44.6,99.7-99.7C201.7,87.6,198.7,74,193.2,61.7z
		"/>
	<polyline class="st6" points="37.1,-45.7 56.3,3 56.7,3.8 57.4,5.7 59.8,11.6 63.3,20.6 64,22.2 64.4,23.3 66.7,29.2 79.9,62.6 	
		"/>
	<polyline class="st6" points="136.7,94.4 175.7,68.9 191.7,58.5 234.3,30.8 	"/>
	<g>
		<path class="st7" d="M64.4,108c0-4.6,3-7.1,5.8-8.1c-2.9-1.2-4.5-3.5-4.5-6.5c0-4.4,3-7.8,8.8-7.8c5.3,0,8.4,3.4,8.4,7.7
			c0,3.1-1.7,5.5-4.5,6.4c3.3,1,5.7,4,5.7,8.1c0,5.5-4.1,9.1-10,9.1C68.6,117,64.4,113.3,64.4,108z M81.8,107.9
			c0-4.4-2.7-6.9-7.4-6.9c-5.2,0-7.5,3-7.5,6.9c0,3.9,2.6,6.9,7.4,6.9C78.7,114.8,81.8,112.3,81.8,107.9z M68.2,93.2
			c0,2.9,1.7,5.6,6.3,5.6c4.2,0,6-2.2,6-5.4c0-2.9-1.8-5.7-6.1-5.7C69.9,87.8,68.2,90.1,68.2,93.2z"/>
		<path class="st7" d="M108.7,101.1c0,6.9-1.8,15.9-9.9,15.9c-7.9,0-9.8-8.2-9.8-15.7c0-7.4,2.1-15.7,10-15.7
			S108.7,93.9,108.7,101.1z M91.6,101.3c0,5.9,1.2,13.4,7.3,13.4c6.2,0,7.4-7.2,7.4-13.7c0-5.8-1.2-13.2-7.2-13.2
			C92.8,87.8,91.6,94.6,91.6,101.3z"/>
		<path class="st7" d="M127.9,94.2c0,4.7-2.4,8.6-7.5,8.6c-4.8,0-7.2-3.7-7.2-8.6c0-4.6,2.4-8.6,7.3-8.6
			C125.2,85.6,127.9,89,127.9,94.2z M115.5,94.2c0,3.7,1.7,6.5,5.1,6.5c3.2,0,5-2.6,5-6.5c0-3.8-1.8-6.4-5.2-6.4
			C117.5,87.8,115.5,90.1,115.5,94.2z M119.5,116.4l20.4-30.3h2.5l-20.3,30.3H119.5z M148.7,108.4c0,4.6-2.3,8.6-7.5,8.6
			c-4.9,0-7.2-4-7.2-8.6c0-4.6,2.4-8.6,7.3-8.6C146.1,99.8,148.7,103.3,148.7,108.4z M136.3,108.4c0,3.7,1.7,6.5,5.1,6.5
			c3.2,0,5-2.6,5-6.5c0-3.8-1.8-6.4-5.2-6.4C138.4,102,136.3,104.5,136.3,108.4z"/>
	</g>
	<ellipse class="st8" cx="-90.9" cy="5.8" rx="18.8" ry="23.3"/>
</g>
</svg>
