<?xml version="1.0" encoding="UTF-8"?>
<!DOCTYPE svg PUBLIC "-//W3C//DTD SVG 1.1//EN" "http://www.w3.org/Graphics/SVG/1.1/DTD/svg11.dtd">
<svg xmlns="http://www.w3.org/2000/svg" version="1.1" width="3731px" height="1517px" style="shape-rendering:geometricPrecision; text-rendering:geometricPrecision; image-rendering:optimizeQuality; fill-rule:evenodd; clip-rule:evenodd" xmlns:xlink="http://www.w3.org/1999/xlink">
<g><path style="opacity:0.997" fill="#fefffe" d="M 790.5,-0.5 C 800.833,-0.5 811.167,-0.5 821.5,-0.5C 982.604,2.48258 1130.94,47.3159 1266.5,134C 1274.84,140.677 1281.34,148.844 1286,158.5C 1288.12,166.257 1287.79,173.923 1285,181.5C 1282.84,186.492 1280.17,191.159 1277,195.5C 1221,270.833 1165,346.167 1109,421.5C 1101.94,430.232 1093.44,437.065 1083.5,442C 1075.2,445.217 1066.86,445.217 1058.5,442C 1054.05,440.274 1049.71,438.274 1045.5,436C 932.576,361.735 810.576,341.735 679.5,376C 542.86,420.306 454.693,511.473 415,649.5C 385.285,773.926 407.952,887.593 483,990.5C 554.52,1078.02 647.02,1126.85 760.5,1137C 817.112,1140.62 873.112,1136.28 928.5,1124C 938.928,1119.91 945.428,1112.41 948,1101.5C 948.097,1090.78 948.763,1080.11 950,1069.5C 952.601,1062.79 956.768,1057.29 962.5,1053C 1071.42,1002.81 1180.42,952.806 1289.5,903C 1304.43,897.917 1317.26,901.084 1328,912.5C 1331.37,916.935 1333.37,921.935 1334,927.5C 1334.67,1066.83 1334.67,1206.17 1334,1345.5C 1331.99,1358.18 1325.82,1368.35 1315.5,1376C 1259.13,1412.51 1198.46,1439.85 1133.5,1458C 991.026,1499.01 846.026,1512.35 698.5,1498C 521.707,1475.37 367.707,1404.7 236.5,1286C 140.114,1196.54 71.6137,1089.04 31,963.5C 12.1512,901.408 1.65119,838.075 -0.5,773.5C -0.5,760.5 -0.5,747.5 -0.5,734.5C 7.17327,556.896 69.6733,401.896 187,269.5C 311.93,133.586 465.764,48.4198 648.5,14C 695.616,5.52201 742.95,0.68868 790.5,-0.5 Z"/></g>
<g><path style="opacity:0.994" fill="#fefffe" d="M 2242.5,3.5 C 2311.16,-0.422618 2363.99,26.244 2401,83.5C 2424.45,125.24 2429.79,169.24 2417,215.5C 2394.39,281.11 2348.89,319.61 2280.5,331C 2208.91,336.957 2154.08,309.79 2116,249.5C 2086.81,193.442 2087.48,137.775 2118,82.5C 2147.13,36.9029 2188.63,10.5695 2242.5,3.5 Z"/></g>
<g><path style="opacity:0.997" fill="#fefffe" d="M 1571.5,97.5 C 1633.87,97.0222 1696.2,97.5222 1758.5,99C 1778.41,106.578 1790.91,120.744 1796,141.5C 1797.66,505.812 1798,870.145 1797,1234.5C 1795.87,1264.63 1780.37,1281.79 1750.5,1286C 1685.8,1286.98 1621.14,1286.65 1556.5,1285C 1536.09,1279.91 1524.93,1266.74 1523,1245.5C 1522.33,877.167 1522.33,508.833 1523,140.5C 1527.15,112.376 1543.31,98.0424 1571.5,97.5 Z"/></g>
<g><path style="opacity:0.993" fill="#fefffe" d="M 2237.5,387.5 C 2238.67,467.332 2238.83,547.332 2238,627.5C 2196.34,638.496 2170,664.829 2159,706.5C 2152.26,752.165 2167.76,787.998 2205.5,814C 2248.91,836.823 2289.58,832.823 2327.5,802C 2363.21,764.237 2369.38,722.071 2346,675.5C 2330.61,650.886 2308.78,635.219 2280.5,628.5C 2280.33,548.833 2280.5,469.166 2281,389.5C 2364.03,504.36 2446.86,619.36 2529.5,734.5C 2489.39,783.38 2460.22,838.38 2442,899.5C 2424.16,959.522 2415.33,1020.86 2415.5,1083.5C 2312.17,1083.5 2208.83,1083.5 2105.5,1083.5C 2105.28,1002.55 2090.11,924.548 2060,849.5C 2041.92,807.463 2018.42,768.963 1989.5,734C 2072.05,618.4 2154.71,502.9 2237.5,387.5 Z"/></g>
<g><path style="opacity:0.988" fill="#fefffe" d="M 3325.5,402.5 C 3368.67,399.154 3398.84,417.154 3416,456.5C 3427.52,496.605 3416.69,529.105 3383.5,554C 3351.17,572.695 3319.5,571.695 3288.5,551C 3262.27,529.65 3251.77,502.15 3257,468.5C 3265.99,432.005 3288.83,410.005 3325.5,402.5 Z"/></g>
<g><path style="opacity:0.981" fill="#fefffe" d="M 3014.5,424.5 C 3036.86,423.344 3057.2,429.178 3075.5,442C 3100.29,460.461 3122.13,481.961 3141,506.5C 3170.49,544.14 3199.49,582.14 3228,620.5C 3244.96,641.791 3262.29,662.791 3280,683.5C 3292.92,697.755 3308.08,708.921 3325.5,717C 3339.89,724.087 3354.22,724.087 3368.5,717C 3370.26,716.28 3371.09,715.113 3371,713.5C 3359.47,698.265 3348.3,682.765 3337.5,667C 3344.98,664.142 3352.65,663.808 3360.5,666C 3378.34,670.87 3394.01,679.536 3407.5,692C 3436.03,718.221 3455.53,750.054 3466,787.5C 3468.83,801.452 3469.16,815.452 3467,829.5C 3466.17,833.161 3464.67,836.495 3462.5,839.5C 3449.19,820.861 3435.52,802.527 3421.5,784.5C 3412.39,792.724 3407.56,803.057 3407,815.5C 3406.67,827.861 3408.67,839.861 3413,851.5C 3417.53,862.898 3422.87,873.898 3429,884.5C 3462.06,935.222 3497.06,984.556 3534,1032.5C 3554.84,1060.15 3573.17,1089.48 3589,1120.5C 3597.76,1139.22 3602.93,1158.89 3604.5,1179.5C 3603.83,1204.34 3593.17,1223.51 3572.5,1237C 3567.6,1240.91 3562.43,1244.41 3557,1247.5C 3540.36,1226.22 3524.19,1204.55 3508.5,1182.5C 3515.12,1177.05 3521.62,1171.38 3528,1165.5C 3535.81,1156.43 3538.47,1146.09 3536,1134.5C 3528.66,1115.49 3519,1097.82 3507,1081.5C 3473.28,1036.11 3439.95,990.447 3407,944.5C 3385.64,914.113 3369.31,881.113 3358,845.5C 3352.26,823.191 3352.09,800.858 3357.5,778.5C 3319.17,774.666 3286.17,759.499 3258.5,733C 3240.23,715.065 3223.06,696.232 3207,676.5C 3174.28,634.117 3141.95,591.45 3110,548.5C 3099.21,534.714 3087.38,521.88 3074.5,510C 3060.05,498.124 3045.05,497.458 3029.5,508C 3024.64,511.695 3019.64,515.195 3014.5,518.5C 2997.94,497.051 2981.6,475.384 2965.5,453.5C 2979.62,440.034 2995.95,430.368 3014.5,424.5 Z"/></g>
<g><path style="opacity:0.995" fill="#fefffe" d="M 2668.5,463.5 C 2737.83,463.333 2807.17,463.5 2876.5,464C 2963.03,577.691 3049.36,691.525 3135.5,805.5C 3122.08,811.436 3114.58,821.77 3113,836.5C 3112.1,861.556 3118.1,884.889 3131,906.5C 3149.07,939.24 3174.91,963.74 3208.5,980C 3221.43,985.398 3234.43,985.731 3247.5,981C 3252.06,978.396 3255.73,974.896 3258.5,970.5C 3259.65,969.269 3260.82,969.269 3262,970.5C 3337.9,1070.06 3413.4,1169.89 3488.5,1270C 3482.85,1280.67 3473.85,1286 3461.5,1286C 3381.17,1286.67 3300.83,1286.67 3220.5,1286C 3206.72,1283.53 3196.22,1276.37 3189,1264.5C 3147.35,1191.87 3105.19,1119.54 3062.5,1047.5C 3019.53,1120.96 2976.37,1194.3 2933,1267.5C 2925.52,1276.82 2916.02,1282.99 2904.5,1286C 2821.17,1286.67 2737.83,1286.67 2654.5,1286C 2639.24,1282.22 2631.57,1272.39 2631.5,1256.5C 2631.61,1252.67 2632.44,1249.01 2634,1245.5C 2636,1242.17 2638,1238.83 2640,1235.5C 2731.83,1112.33 2823.67,989.167 2915.5,866C 2827.28,747.448 2739.45,628.615 2652,509.5C 2647.17,502.187 2644.34,494.187 2643.5,485.5C 2644.01,478.647 2647.01,473.147 2652.5,469C 2657.64,466.226 2662.97,464.393 2668.5,463.5 Z"/></g>
<g><path style="opacity:0.994" fill="#fefffe" d="M 968.5,599.5 C 974.659,599.216 980.659,600.049 986.5,602C 1093.17,655 1199.83,708 1306.5,761C 1318.64,769.798 1323.14,781.631 1320,796.5C 1318.18,804.312 1314.01,810.478 1307.5,815C 1200.17,868.333 1092.83,921.667 985.5,975C 963.679,980.673 949.179,972.84 942,951.5C 941.333,842.833 941.333,734.167 942,625.5C 945.424,611.242 954.257,602.575 968.5,599.5 Z"/></g>
<g><path style="opacity:0.989" fill="#fefffe" d="M 3613.5,792.5 C 3654.1,790.54 3682.93,807.873 3700,844.5C 3713.6,889.737 3700.43,924.57 3660.5,949C 3624.94,964.211 3592.77,959.044 3564,933.5C 3537.44,902.587 3533.44,868.92 3552,832.5C 3566.58,809.968 3587.08,796.635 3613.5,792.5 Z"/></g>
<g><path style="opacity:0.996" fill="#fefffe" d="M 2015.5,1138.5 C 2167.83,1138.5 2320.17,1138.5 2472.5,1138.5C 2472.5,1186.83 2472.5,1235.17 2472.5,1283.5C 2320.17,1283.5 2167.83,1283.5 2015.5,1283.5C 2015.5,1235.17 2015.5,1186.83 2015.5,1138.5 Z"/></g>
<g><path style="opacity:0.941" fill="#fefffe" d="M 3362.5,1352.5 C 3371.84,1352.33 3381.17,1352.5 3390.5,1353C 3392.05,1354.21 3393.22,1355.71 3394,1357.5C 3397.74,1372.42 3392.08,1378.09 3377,1374.5C 3372.12,1374.47 3367.28,1374.14 3362.5,1373.5C 3361.81,1372.97 3361.31,1372.31 3361,1371.5C 3360.33,1365.83 3360.33,1360.17 3361,1354.5C 3361.72,1353.96 3362.22,1353.29 3362.5,1352.5 Z"/></g>
<g><path style="opacity:0.984" fill="#fefffe" d="M 3281.5,1357.5 C 3290.84,1357.33 3300.17,1357.5 3309.5,1358C 3310.42,1358.37 3311.25,1358.87 3312,1359.5C 3312.67,1400.5 3312.67,1441.5 3312,1482.5C 3310.83,1483.89 3309.33,1484.73 3307.5,1485C 3298.42,1485.91 3289.42,1485.58 3280.5,1484C 3279.83,1482.67 3279.17,1481.33 3278.5,1480C 3279.33,1439.9 3279.83,1399.74 3280,1359.5C 3280.72,1358.96 3281.22,1358.29 3281.5,1357.5 Z"/></g>
<g><path style="opacity:0.961" fill="#fefffe" d="M 1583.5,1368.5 C 1605.17,1366.52 1626.17,1369.36 1646.5,1377C 1649.58,1377.91 1651.91,1379.74 1653.5,1382.5C 1649.54,1390.14 1643.54,1395.48 1635.5,1398.5C 1617.88,1390.56 1599.55,1388.39 1580.5,1392C 1563.94,1395.24 1552.11,1404.41 1545,1419.5C 1542.71,1428.07 1544.05,1436.07 1549,1443.5C 1565.46,1460.88 1585.62,1467.71 1609.5,1464C 1614.33,1463.46 1619,1462.29 1623.5,1460.5C 1624.19,1451.81 1624.86,1443.14 1625.5,1434.5C 1626.38,1433.75 1627.38,1433.25 1628.5,1433C 1635.83,1432.33 1643.17,1432.33 1650.5,1433C 1651.77,1433.31 1652.93,1433.81 1654,1434.5C 1654.82,1448.08 1654.66,1461.58 1653.5,1475C 1624.34,1487.53 1594.34,1489.86 1563.5,1482C 1544.05,1476.7 1528.55,1465.87 1517,1449.5C 1506.49,1425.69 1511.33,1405.52 1531.5,1389C 1547.13,1377.74 1564.47,1370.9 1583.5,1368.5 Z"/></g>
<g><path style="opacity:0.965" fill="#fefffe" d="M 2939.5,1369.5 C 2977.92,1369.01 3016.25,1369.51 3054.5,1371C 3055.64,1377.08 3055.81,1383.25 3055,1389.5C 3054.5,1390 3054,1390.5 3053.5,1391C 3026.5,1391.33 2999.5,1391.67 2972.5,1392C 2972,1392.5 2971.5,1393 2971,1393.5C 2970.33,1402.17 2970.33,1410.83 2971,1419.5C 2971.5,1420 2972,1420.5 2972.5,1421C 2993.5,1421.33 3014.5,1421.67 3035.5,1422C 3036.64,1428.08 3036.81,1434.25 3036,1440.5C 3035.5,1441 3035,1441.5 3034.5,1442C 3013.83,1442.33 2993.17,1442.67 2972.5,1443C 2972,1443.5 2971.5,1444 2971,1444.5C 2970.67,1457.5 2970.33,1470.5 2970,1483.5C 2969.25,1484.13 2968.42,1484.63 2967.5,1485C 2962.83,1485.17 2958.17,1485.33 2953.5,1485.5C 2948.06,1485.62 2942.73,1485.12 2937.5,1484C 2936.34,1446.57 2936.17,1409.07 2937,1371.5C 2937.99,1370.93 2938.83,1370.27 2939.5,1369.5 Z"/></g>
<g><path style="opacity:0.97" fill="#fefffe" d="M 1763.5,1384.5 C 1781.21,1383.21 1797.87,1386.71 1813.5,1395C 1815.09,1396.05 1816.59,1397.21 1818,1398.5C 1818.48,1394.42 1819.64,1390.59 1821.5,1387C 1829.5,1386.33 1837.5,1386.33 1845.5,1387C 1846.42,1387.37 1847.25,1387.87 1848,1388.5C 1848.67,1419.83 1848.67,1451.17 1848,1482.5C 1847.5,1483 1847,1483.5 1846.5,1484C 1838.23,1485.54 1829.9,1485.87 1821.5,1485C 1817.18,1482.91 1815.34,1479.41 1816,1474.5C 1796.29,1486.15 1775.12,1489.65 1752.5,1485C 1734,1481.83 1718.5,1473.33 1706,1459.5C 1692.77,1437.73 1695.93,1418.56 1715.5,1402C 1730.01,1391.9 1746.01,1386.07 1763.5,1384.5 Z M 1768.5,1405.5 C 1785.88,1404.78 1800.38,1410.78 1812,1423.5C 1818.54,1438.95 1814.37,1450.78 1799.5,1459C 1779,1468.7 1759.33,1467.37 1740.5,1455C 1726.12,1439.25 1727.79,1425.25 1745.5,1413C 1752.86,1409.16 1760.53,1406.66 1768.5,1405.5 Z"/></g>
<g><path style="opacity:0.967" fill="#fefffe" d="M 2119.5,1384.5 C 2139.07,1382.74 2157.07,1387.08 2173.5,1397.5C 2174.74,1393.8 2176.41,1390.3 2178.5,1387C 2186.5,1386.33 2194.5,1386.33 2202.5,1387C 2203.33,1387.83 2204.17,1388.67 2205,1389.5C 2205.67,1420.17 2205.67,1450.83 2205,1481.5C 2203.49,1483.77 2201.32,1484.93 2198.5,1485C 2191.83,1485.67 2185.17,1485.67 2178.5,1485C 2176.67,1484.73 2175.17,1483.89 2174,1482.5C 2173.33,1479.83 2172.67,1477.17 2172,1474.5C 2162.47,1480.9 2151.97,1484.73 2140.5,1486C 2116.65,1488.77 2094.65,1483.77 2074.5,1471C 2052.99,1455.14 2048.82,1435.64 2062,1412.5C 2071.73,1401.04 2083.89,1393.21 2098.5,1389C 2105.57,1387.15 2112.57,1385.65 2119.5,1384.5 Z M 2124.5,1405.5 C 2141.02,1404.84 2155.19,1410.17 2167,1421.5C 2175.31,1434.8 2173.14,1446.3 2160.5,1456C 2141.22,1467.8 2121.55,1468.46 2101.5,1458C 2086.66,1448.15 2083.82,1435.65 2093,1420.5C 2101.87,1411.94 2112.37,1406.94 2124.5,1405.5 Z"/></g>
<g><path style="opacity:0.964" fill="#fefffe" d="M 2549.5,1384.5 C 2572.34,1383.29 2593.34,1388.79 2612.5,1401C 2638.67,1423.56 2639,1446.56 2613.5,1470C 2591.91,1484.12 2568.24,1489.45 2542.5,1486C 2521.64,1483.65 2504.14,1474.82 2490,1459.5C 2476.55,1436.68 2480.39,1417.18 2501.5,1401C 2516.17,1391.39 2532.17,1385.89 2549.5,1384.5 Z M 2552.5,1405.5 C 2569.16,1404.44 2583,1410.11 2594,1422.5C 2601.24,1437.03 2598.07,1448.87 2584.5,1458C 2563.87,1468.74 2543.87,1467.74 2524.5,1455C 2511.5,1441.86 2511.84,1428.86 2525.5,1416C 2533.7,1410.21 2542.7,1406.71 2552.5,1405.5 Z"/></g>
<g><path style="opacity:0.963" fill="#fefffe" d="M 3156.5,1384.5 C 3178.99,1383.45 3199.66,1388.95 3218.5,1401C 3231.48,1411.11 3237.14,1424.28 3235.5,1440.5C 3234.81,1442.35 3233.48,1443.52 3231.5,1444C 3196.5,1444.33 3161.5,1444.67 3126.5,1445C 3125.33,1446.87 3125.49,1448.7 3127,1450.5C 3135.18,1459.51 3145.34,1464.67 3157.5,1466C 3172.2,1467.57 3185.87,1464.57 3198.5,1457C 3200.83,1456.33 3203.17,1456.33 3205.5,1457C 3211.21,1460.05 3215.55,1464.38 3218.5,1470C 3218.21,1471.89 3217.21,1473.22 3215.5,1474C 3188.18,1487.95 3159.85,1490.29 3130.5,1481C 3116.41,1476.38 3104.91,1468.21 3096,1456.5C 3085.22,1434.76 3089.39,1416.26 3108.5,1401C 3123.18,1391.38 3139.18,1385.88 3156.5,1384.5 Z M 3160.5,1404.5 C 3176.58,1403.55 3190.08,1408.88 3201,1420.5C 3201.87,1422.89 3201.03,1424.39 3198.5,1425C 3173.83,1425.67 3149.17,1425.67 3124.5,1425C 3133.37,1412.73 3145.37,1405.9 3160.5,1404.5 Z"/></g>
<g><path style="opacity:0.978" fill="#fefffe" d="M 2732.5,1385.5 C 2742.17,1385.33 2751.84,1385.5 2761.5,1386C 2775.96,1387.97 2787.79,1394.47 2797,1405.5C 2799.97,1410.08 2801.97,1415.08 2803,1420.5C 2803.67,1441.17 2803.67,1461.83 2803,1482.5C 2802.5,1483 2802,1483.5 2801.5,1484C 2796.75,1485.08 2791.92,1485.58 2787,1485.5C 2781.5,1485.7 2776.17,1485.03 2771,1483.5C 2770.95,1463.12 2770.29,1442.78 2769,1422.5C 2765.71,1415.88 2760.54,1411.38 2753.5,1409C 2737.55,1404.42 2723.38,1407.58 2711,1418.5C 2710.33,1419.83 2709.67,1421.17 2709,1422.5C 2708.02,1442.87 2707.02,1463.21 2706,1483.5C 2704.93,1484.19 2703.77,1484.69 2702.5,1485C 2698.67,1485.17 2694.83,1485.33 2691,1485.5C 2685.5,1485.7 2680.17,1485.03 2675,1483.5C 2674.33,1452.17 2674.33,1420.83 2675,1389.5C 2675.9,1388.3 2677.07,1387.47 2678.5,1387C 2685.83,1386.33 2693.17,1386.33 2700.5,1387C 2703.56,1390.16 2705.06,1393.99 2705,1398.5C 2713.08,1391.76 2722.25,1387.42 2732.5,1385.5 Z"/></g>
<g><path style="opacity:0.964" fill="#fefffe" d="M 1944.5,1516.5 C 1934.17,1516.5 1923.83,1516.5 1913.5,1516.5C 1912.49,1514.6 1912.32,1512.6 1913,1510.5C 1919.89,1499.23 1926.39,1487.73 1932.5,1476C 1915.29,1447.62 1898.29,1419.12 1881.5,1390.5C 1882.04,1389.25 1882.71,1388.09 1883.5,1387C 1893.17,1386.33 1902.83,1386.33 1912.5,1387C 1913.42,1387.37 1914.25,1387.87 1915,1388.5C 1925.83,1409.49 1937.16,1430.15 1949,1450.5C 1960.37,1429.59 1971.87,1408.75 1983.5,1388C 1989.06,1386.88 1994.73,1386.38 2000.5,1386.5C 2005.75,1386.51 2010.91,1386.85 2016,1387.5C 2016.51,1391.51 2015.51,1395.18 2013,1398.5C 1990.41,1438.02 1967.57,1477.36 1944.5,1516.5 Z"/></g>
<g><path style="opacity:0.964" fill="#fefffe" d="M 2240.5,1386.5 C 2251.27,1386.05 2261.94,1386.55 2272.5,1388C 2283.45,1408.74 2294.79,1429.24 2306.5,1449.5C 2317,1429.83 2327.5,1410.17 2338,1390.5C 2339.17,1389.33 2340.33,1388.17 2341.5,1387C 2351.74,1386.18 2361.91,1386.35 2372,1387.5C 2372.67,1389.5 2372.67,1391.5 2372,1393.5C 2367.79,1399.41 2363.96,1405.58 2360.5,1412C 2367.75,1424.35 2375.58,1436.19 2384,1447.5C 2386.32,1446.51 2387.99,1444.85 2389,1442.5C 2399.04,1424.25 2409.21,1406.09 2419.5,1388C 2429.4,1386.38 2439.4,1386.05 2449.5,1387C 2450.58,1387.67 2451.25,1388.67 2451.5,1390C 2433.69,1421.82 2415.02,1453.15 2395.5,1484C 2388.15,1485.96 2380.82,1485.96 2373.5,1484C 2371.29,1482.13 2369.46,1479.96 2368,1477.5C 2361.3,1464.73 2353.63,1452.73 2345,1441.5C 2343.23,1442.34 2341.9,1443.67 2341,1445.5C 2333.92,1458 2326.59,1470.33 2319,1482.5C 2317.83,1483.89 2316.33,1484.73 2314.5,1485C 2308.08,1485.87 2301.75,1485.54 2295.5,1484C 2275.26,1453.43 2256.26,1422.09 2238.5,1390C 2238.98,1388.7 2239.64,1387.53 2240.5,1386.5 Z"/></g>
<g><path style="opacity:0.969" fill="#fefffe" d="M 3363.5,1386.5 C 3372.51,1386.33 3381.51,1386.5 3390.5,1387C 3392.33,1387.5 3393.5,1388.67 3394,1390.5C 3394.67,1421.17 3394.67,1451.83 3394,1482.5C 3392.83,1483.89 3391.33,1484.73 3389.5,1485C 3381.5,1485.67 3373.5,1485.67 3365.5,1485C 3363.67,1484.73 3362.17,1483.89 3361,1482.5C 3360.33,1451.17 3360.33,1419.83 3361,1388.5C 3361.99,1387.93 3362.83,1387.27 3363.5,1386.5 Z"/></g>
<g><path style="opacity:0.958" fill="#fefffe" d="M 3439.5,1386.5 C 3450.51,1386.33 3461.51,1386.5 3472.5,1387C 3474.17,1388 3475.83,1389 3477.5,1390C 3485.7,1399.2 3494.2,1408.04 3503,1416.5C 3512.82,1406.68 3522.65,1396.85 3532.5,1387C 3543.83,1386.33 3555.17,1386.33 3566.5,1387C 3567.52,1388.05 3567.68,1389.22 3567,1390.5C 3551.91,1404.45 3537.41,1418.95 3523.5,1434C 3538.3,1449.13 3553.46,1463.96 3569,1478.5C 3571.36,1481.41 3570.86,1483.57 3567.5,1485C 3562.33,1485.17 3557.17,1485.33 3552,1485.5C 3545.76,1485.6 3539.59,1485.1 3533.5,1484C 3523.44,1473.38 3513.28,1462.88 3503,1452.5C 3492.72,1462.88 3482.56,1473.38 3472.5,1484C 3466.05,1485.05 3459.55,1485.55 3453,1485.5C 3447.39,1485.62 3441.89,1485.12 3436.5,1484C 3435.33,1482.13 3435.49,1480.3 3437,1478.5C 3452.54,1463.96 3467.7,1449.13 3482.5,1434C 3468.07,1419.57 3453.57,1405.07 3439,1390.5C 3438.81,1389.18 3438.97,1387.85 3439.5,1386.5 Z"/></g>
</svg>
