<?xml version="1.0" encoding="utf-8"?>
<!-- Generator: Adobe Illustrator 27.7.0, SVG Export Plug-In . SVG Version: 6.00 Build 0)  -->
<svg version="1.1" xmlns="http://www.w3.org/2000/svg" xmlns:xlink="http://www.w3.org/1999/xlink" x="0px" y="0px"
	 viewBox="0 0 204 204" style="enable-background:new 0 0 204 204;" xml:space="preserve">
<style type="text/css">
	.st0{display:none;}
	.st1{display:inline;stroke:#000000;stroke-miterlimit:10;}
	.st2{display:none;fill:url(#SVGID_1_);}
	.st3{display:none;fill:#D1D1D1;}
	.st4{fill:#2B3C66;}
	.st5{fill:#F6F6F6;stroke:#F6F6F6;stroke-width:0.75;stroke-miterlimit:10;}
	.st6{display:none;fill:none;stroke:#000000;stroke-width:0.25;stroke-miterlimit:10;}
	.st7{display:none;fill:#FFFFFF;stroke:#000000;stroke-width:0.25;stroke-miterlimit:10;}
</style>
<g id="Layer_2" class="st0">
	<rect x="-13.2" y="-5.7" class="st1" width="226.8" height="219.3"/>
</g>
<g id="Layer_1">
	
		<linearGradient id="SVGID_1_" gradientUnits="userSpaceOnUse" x1="-12.4729" y1="104.4204" x2="228.0859" y2="103.5369" gradientTransform="matrix(1 0 0 -1 0 206)">
		<stop  offset="0" style="stop-color:#AA367C"/>
		<stop  offset="1" style="stop-color:#4A2FBD"/>
	</linearGradient>
	<path class="st2" d="M199.2,71c7.2,22.7,6.3,47.3-2.8,69.5c-9.7,23.8-28,43-51.3,53.9c-23.3,10.9-49.7,12.6-74.2,4.8
		c-24.5-7.8-45.1-24.5-57.7-46.9C0.6,130-3.2,103.7,2.7,78.7c5.9-25,20.9-46.8,42.2-61.2S92.1-2.7,117.4,1.2
		c21.9,3.3,42,13.7,57.4,29.4c6.5,6.7,0.6,19.8-13.4,16.5c-12.4-13.4-29-22.2-47.1-25C94.1,18.9,73.6,23.6,56.7,35
		C39.8,46.4,27.9,63.7,23.2,83.5c-4.7,19.8-1.7,40.7,8.4,58.4c10,17.7,26.4,31,45.8,37.2c19.4,6.2,40.4,4.8,58.9-3.8
		c18.4-8.6,33-23.9,40.7-42.7c6.4-15.6,7.7-32.7,3.9-48.9C178.8,74.8,186.5,65,199.2,71z"/>
	<rect x="-136.1" y="-33" class="st3" width="36.2" height="29.6"/>
	<path class="st4" d="M102,2.3C46.9,2.3,2.3,46.9,2.3,102s44.6,99.7,99.7,99.7s99.7-44.6,99.7-99.7S157.1,2.3,102,2.3z M101.9,182.8
		c-44.6,0-80.8-36.2-80.8-80.8s36.2-80.8,80.8-80.8c44.6,0,80.8,36.2,80.8,80.8S146.5,182.8,101.9,182.8z"/>
	<path class="st5" d="M191.7,58.5l-16,10.5c4.5,10.1,7,21.3,7,33c0,44.6-36.2,80.8-80.8,80.8c-44.6,0-80.8-36.2-80.8-80.8
		s36.2-80.8,80.8-80.8c9.1,0,17.8,1.5,25.9,4.2l1-1.4l10.8-14.4C128,4.9,115.3,2.3,102,2.3C46.9,2.3,2.3,46.9,2.3,102
		s44.6,99.7,99.7,99.7s99.7-44.6,99.7-99.7C201.7,86.4,198.1,71.6,191.7,58.5z"/>
	<polyline class="st6" points="171.6,-33 140.2,8.9 139.6,9.6 128.8,24 127.8,25.4 101.7,60.2 	"/>
	<polyline class="st6" points="136.7,94.4 175.7,68.9 191.7,58.5 234.3,30.8 	"/>
	<g>
		<path class="st5" d="M62.4,108.3c1.1,2.9,2.9,4.4,6.2,4.4c6.9,0,7.5-9.8,7.6-13.9c-1.5,3.1-4.3,4.3-7.9,4.3c-5.3,0-8.9-4-8.9-9.6
			c0-5.3,3.4-9.9,9.5-9.9c6.9,0,9.6,5.5,9.6,13.8c0,7.5-1.3,17.4-10.1,17.4c-5.4,0-7.8-3.1-8.6-6.5H62.4z M61.9,93.5
			c0,4.4,2.5,7.4,6.6,7.4c5.1,0,7.2-2.7,7.2-7.2c0-1.7-0.6-7.9-6.9-7.9C64,85.8,61.9,89.2,61.9,93.5z"/>
		<path class="st5" d="M103.4,99.1c0,6.9-1.8,15.9-9.9,15.9c-7.9,0-9.8-8.2-9.8-15.7c0-7.4,2.1-15.7,10-15.7
			C101.6,83.6,103.4,91.9,103.4,99.1z M86.2,99.3c0,5.9,1.2,13.4,7.3,13.4c6.2,0,7.4-7.2,7.4-13.7c0-5.8-1.2-13.2-7.2-13.2
			C87.4,85.8,86.2,92.6,86.2,99.3z"/>
		<path class="st5" d="M122.6,92.2c0,4.7-2.4,8.6-7.5,8.6c-4.8,0-7.2-3.7-7.2-8.6c0-4.6,2.4-8.6,7.3-8.6
			C119.9,83.6,122.6,87,122.6,92.2z M110.2,92.2c0,3.7,1.7,6.5,5.1,6.5c3.2,0,5-2.6,5-6.5c0-3.8-1.8-6.4-5.2-6.4
			C112.1,85.8,110.2,88.1,110.2,92.2z M114.2,114.4l20.4-30.3h2.5l-20.4,30.3H114.2z M143.4,106.4c0,4.6-2.3,8.6-7.5,8.6
			c-4.9,0-7.2-4-7.2-8.6c0-4.6,2.4-8.6,7.3-8.6C140.8,97.8,143.4,101.3,143.4,106.4z M131,106.4c0,3.7,1.7,6.5,5.1,6.5
			c3.2,0,5-2.6,5-6.5c0-3.8-1.8-6.4-5.2-6.4C133.1,100,131,102.5,131,106.4z"/>
	</g>
	<ellipse class="st7" cx="-90.9" cy="5.8" rx="18.8" ry="23.3"/>
</g>
</svg>
