<?xml version="1.0" encoding="utf-8"?>
<!-- Generator: Adobe Illustrator 27.3.1, SVG Export Plug-In . SVG Version: 6.00 Build 0)  -->
<svg version="1.1" id="Layer_1" xmlns="http://www.w3.org/2000/svg" xmlns:xlink="http://www.w3.org/1999/xlink" x="0px" y="0px"
	 viewBox="0 0 204 204" style="enable-background:new 0 0 204 204;" xml:space="preserve">
<style type="text/css">
	.st0{display:none;}
	.st1{display:inline;stroke:#000000;stroke-miterlimit:10;}
	.st2{display:none;fill:url(#SVGID_1_);}
	.st3{display:none;fill:#D1D1D1;}
	.st4{fill:#2B3C66;}
	.st5{fill:#FFFFFF;}
	.st6{display:none;fill:none;stroke:#000000;stroke-width:0.25;stroke-miterlimit:10;}
	.st7{fill:#F6F6F6;stroke:#F6F6F6;stroke-width:0.75;stroke-miterlimit:10;}
	.st8{display:none;fill:#FFFFFF;stroke:#000000;stroke-width:0.25;stroke-miterlimit:10;}
</style>
<g id="Layer_2_00000084521995782981912110000007647674443181869236_" class="st0">
	<rect x="-13.2" y="-5.7" class="st1" width="226.8" height="219.3"/>
</g>
<g id="Layer_1_00000175321603550811491370000005304291242460187265_">
	
		<linearGradient id="SVGID_1_" gradientUnits="userSpaceOnUse" x1="-12.473" y1="975.5994" x2="228.0858" y2="976.4829" gradientTransform="matrix(1 0 0 1 0 -874)">
		<stop  offset="0" style="stop-color:#AA367C"/>
		<stop  offset="1" style="stop-color:#4A2FBD"/>
	</linearGradient>
	<path class="st2" d="M199.2,71c7.2,22.7,6.3,47.3-2.8,69.5c-9.7,23.8-28,43-51.3,53.9s-49.7,12.6-74.2,4.8s-45.1-24.5-57.7-46.9
		C0.6,130-3.2,103.7,2.7,78.7s20.9-46.8,42.2-61.2S92.1-2.7,117.4,1.2c21.9,3.3,42,13.7,57.4,29.4c6.5,6.7,0.6,19.8-13.4,16.5
		c-12.4-13.4-29-22.2-47.1-25C94.1,18.9,73.6,23.6,56.7,35S27.9,63.7,23.2,83.5s-1.7,40.7,8.4,58.4c10,17.7,26.4,31,45.8,37.2
		s40.4,4.8,58.9-3.8c18.4-8.6,33-23.9,40.7-42.7c6.4-15.6,7.7-32.7,3.9-48.9C178.8,74.8,186.5,65,199.2,71z"/>
	<rect x="-136.1" y="-33" class="st3" width="36.2" height="29.6"/>
	<path class="st4" d="M102,2.3C46.9,2.3,2.3,46.9,2.3,102s44.6,99.7,99.7,99.7s99.7-44.6,99.7-99.7S157.1,2.3,102,2.3z M101.9,182.8
		c-44.6,0-80.8-36.2-80.8-80.8s36.2-80.8,80.8-80.8s80.8,36.2,80.8,80.8S146.5,182.8,101.9,182.8z"/>
	<path class="st5" d="M194.9,65.8l-16.1,11.4c2.5,7.8,3.9,16.1,3.9,24.8c0,44.6-36.2,80.8-80.8,80.8c-44.6,0-80.8-36.2-80.8-80.8
		s36.2-80.8,80.8-80.8c5.8,0,11.5,0.6,17,1.8l19.5-13.8c-11.3-4.4-23.6-6.9-36.4-6.9C46.9,2.3,2.3,46.9,2.3,102s44.6,99.7,99.7,99.7
		s99.7-44.6,99.7-99.7C201.7,89.2,199.3,77,194.9,65.8z"/>
	<polyline class="st6" points="94.6,63.8 94.6,21.5 94.6,20.3 94.6,18.6 94.5,2.6 94.5,0.6 94.5,-0.4 94.4,-52.7 	"/>
	<polyline class="st6" points="136.7,94.4 175.7,68.9 191.7,58.5 234.3,30.8 	"/>
	<g>
		<path class="st7" d="M62.5,108.6c0-4.6,3-7.1,5.8-8.1c-2.9-1.2-4.5-3.5-4.5-6.5c0-4.4,3-7.8,8.8-7.8c5.3,0,8.4,3.4,8.4,7.7
			c0,3.1-1.7,5.5-4.5,6.4c3.3,1,5.7,4,5.7,8.1c0,5.5-4.1,9.1-10,9.1C66.7,117.6,62.5,113.9,62.5,108.6z M79.9,108.5
			c0-4.4-2.7-6.9-7.4-6.9c-5.2,0-7.5,3-7.5,6.9s2.6,6.9,7.4,6.9C76.8,115.4,79.9,112.9,79.9,108.5z M66.3,93.8
			c0,2.9,1.7,5.6,6.3,5.6c4.2,0,6-2.2,6-5.4c0-2.9-1.8-5.7-6.1-5.7C68,88.4,66.3,90.7,66.3,93.8z"/>
		<path class="st7" d="M126,94.8c0,4.7-2.4,8.6-7.5,8.6c-4.8,0-7.2-3.7-7.2-8.6c0-4.6,2.4-8.6,7.3-8.6C123.3,86.2,126,89.6,126,94.8
			z M113.6,94.8c0,3.7,1.7,6.5,5.1,6.5c3.2,0,5-2.6,5-6.5c0-3.8-1.8-6.4-5.2-6.4C115.6,88.4,113.6,90.7,113.6,94.8z M117.6,117
			L138,86.7h2.5L120.2,117H117.6z M146.8,109c0,4.6-2.3,8.6-7.5,8.6c-4.9,0-7.2-4-7.2-8.6s2.4-8.6,7.3-8.6
			C144.2,100.4,146.8,103.9,146.8,109z M134.4,109c0,3.7,1.7,6.5,5.1,6.5c3.2,0,5-2.6,5-6.5c0-3.8-1.8-6.4-5.2-6.4
			C136.5,102.6,134.4,105.1,134.4,109z"/>
	</g>
	<path class="st7" d="M105.4,89.1h-13c-0.3,3-1.2,8.7-1.6,10.6c1.4-1.7,3.5-3,6.9-3c5.2,0,9,3.5,9,10c0,5.9-3,10.9-9.8,10.9
		c-5,0-8.6-2.9-9.5-7.9h2.4c0.8,3.2,3.1,5.7,7.2,5.7c4.8,0,7.2-3.4,7.2-8.6c0-4.4-1.9-7.9-6.6-7.9c-4.2,0-6,1.7-7.3,4.6l-2.3-0.6
		c1-4,2-12.5,2.4-16.1h15.3L105.4,89.1z"/>
	<ellipse class="st8" cx="-90.9" cy="5.8" rx="18.8" ry="23.3"/>
</g>
</svg>
